<svg width="65" height="65" viewBox="0 0 65 65" fill="none" xmlns="http://www.w3.org/2000/svg">
<path d="M64.2253 35.2214C63.7122 34.7068 63.1015 34.4492 62.3973 34.4492H53.2977V22.5059L60.3261 15.4779C60.8403 14.9635 61.0984 14.3541 61.0984 13.6495C61.0984 12.9456 60.8404 12.3364 60.3261 11.8216C59.8118 11.3071 59.2023 11.0498 58.4981 11.0498C57.7939 11.0498 57.1844 11.3072 56.6702 11.8216L49.6418 18.8496H15.3559L8.32783 11.8216C7.81318 11.3071 7.20406 11.0498 6.49989 11.0498C5.79529 11.0498 5.18616 11.3072 4.67152 11.8216C4.15687 12.3362 3.89976 12.9456 3.89976 13.6495C3.89976 14.3541 4.15687 14.9635 4.67152 15.4779L11.6996 22.5059V34.4492H2.59998C1.89581 34.4492 1.28655 34.7068 0.772041 35.2214C0.257394 35.7356 0 36.3457 0 37.0493C0 37.7535 0.257394 38.3636 0.772041 38.8774C1.28655 39.3921 1.89581 39.6502 2.59998 39.6502H11.6996C11.6996 43.9823 12.4853 47.6936 14.0558 50.7803L5.85021 60.0017C5.38963 60.5438 5.17976 61.1733 5.2206 61.8905C5.26101 62.6072 5.53861 63.21 6.05325 63.698C6.5679 64.1313 7.14985 64.3484 7.79981 64.3484C8.55819 64.3484 9.20801 64.0651 9.74997 63.4954L17.1838 55.086L17.7935 55.6557C18.1726 56.0085 18.7612 56.4474 19.5606 56.9753C20.3598 57.5032 21.2533 58.0315 22.2415 58.5608C23.2304 59.0887 24.4085 59.5357 25.7759 59.9008C27.1438 60.2669 28.5181 60.45 29.8993 60.45V24.0511H35.0994V60.45C36.399 60.45 37.7122 60.2738 39.039 59.9212C40.3663 59.5696 41.4771 59.1767 42.3711 58.7433C43.2639 58.3095 44.1454 57.8158 45.0112 57.2607C45.878 56.7057 46.4467 56.3199 46.7173 56.1028C46.9889 55.8857 47.1915 55.7098 47.3269 55.5749L55.3708 63.5775C55.8593 64.0921 56.4674 64.3492 57.1988 64.3492C57.9303 64.3492 58.5394 64.0921 59.0277 63.5775C59.5409 63.0628 59.799 62.4531 59.799 61.749C59.799 61.0448 59.5411 60.4354 59.0277 59.921L50.5777 51.431C52.3925 48.2081 53.2996 44.281 53.2996 39.6503H62.3992C63.1033 39.6503 63.7133 39.3928 64.2271 38.8781C64.7413 38.3639 65 37.7544 65 37.0502C65 36.3462 64.7415 35.7362 64.2253 35.2214Z" fill="#EA050E"/>
<path d="M41.7012 4.44921C39.1692 1.91724 36.102 0.650757 32.5 0.650757C28.8975 0.650757 25.8311 1.91724 23.2987 4.44921C20.7667 6.98147 19.501 10.0486 19.501 13.6504H45.4988C45.4988 10.0491 44.2332 6.98147 41.7012 4.44921Z" fill="#EA050E"/>
</svg>
