<svg width="65" height="65" fill="none" xmlns="http://www.w3.org/2000/svg"><path d="M64.225 35.221c-.513-.514-1.123-.772-1.828-.772h-9.1V22.506l7.03-7.028c.513-.514.771-1.124.771-1.829 0-.703-.258-1.313-.772-1.827-.514-.515-1.124-.772-1.828-.772s-1.314.257-1.828.772l-7.028 7.028H15.356l-7.028-7.028c-.515-.515-1.124-.772-1.828-.772-.705 0-1.314.257-1.828.772-.515.514-.772 1.124-.772 1.828s.257 1.313.772 1.828l7.028 7.028v11.943H2.6c-.704 0-1.313.258-1.828.772C.257 35.736 0 36.346 0 37.05c0 .705.257 1.315.772 1.828.515.515 1.124.773 1.828.773h9.1c0 4.332.785 8.044 2.356 11.13L5.85 60.002a2.588 2.588 0 00-.63 1.889c.041.716.319 1.319.833 1.807a2.64 2.64 0 001.747.65c.758 0 1.408-.283 1.95-.853l7.434-8.409.61.57c.379.352.967.791 1.767 1.32a34.165 34.165 0 002.68 1.585c.99.528 2.168.975 3.535 1.34 1.368.366 2.742.549 4.123.549V24.051h5.2V60.45c1.3 0 2.613-.176 3.94-.529 1.327-.351 2.438-.744 3.332-1.178a25.705 25.705 0 002.64-1.482c.867-.555 1.436-.941 1.706-1.158.272-.217.474-.393.61-.528l8.044 8.002c.488.515 1.096.772 1.828.772.731 0 1.34-.257 1.829-.772.513-.514.771-1.124.771-1.828s-.258-1.314-.771-1.828l-8.45-8.49c1.814-3.223 2.722-7.15 2.722-11.78h9.1c.703 0 1.313-.258 1.827-.773.514-.514.773-1.124.773-1.828s-.258-1.314-.775-1.829z" fill="#EA050E"/><path d="M41.701 4.45C39.17 1.916 36.102.65 32.5.65c-3.602 0-6.669 1.267-9.201 3.8-2.532 2.531-3.798 5.599-3.798 9.2h25.998c0-3.6-1.266-6.669-3.798-9.2z" fill="#EA050E"/></svg>